<!DOCTYPE svg PUBLIC "-//W3C//DTD SVG 1.1//EN" "http://www.w3.org/Graphics/SVG/1.1/DTD/svg11.dtd">
<!-- Uploaded to: SVG Repo, www.svgrepo.com, Transformed by: SVG Repo Mixer Tools -->
<svg fill="#ebfff2" height="256px" width="256px" version="1.1" id="Layer_1" xmlns="http://www.w3.org/2000/svg" xmlns:xlink="http://www.w3.org/1999/xlink" viewBox="-184.32 -184.32 880.64 880.64" xml:space="preserve" stroke="#ebfff2">
<g id="SVGRepo_bgCarrier" stroke-width="0">
<rect x="-184.32" y="-184.32" width="880.64" height="880.64" rx="440.32" fill="#56e681" strokewidth="0"/>
</g>
<g id="SVGRepo_tracerCarrier" stroke-linecap="round" stroke-linejoin="round"/>
<g id="SVGRepo_iconCarrier"> <g> <g> <g> <path d="M258.428,276.208c2.234,2.5,5.329,3.774,8.438,3.774c2.68,0,5.371-0.948,7.529-2.874c4.656-4.16,5.06-11.309,0.9-15.966 c-3.931-4.4-7.72-8.636-11.321-12.653c-4.168-4.653-11.318-5.044-15.966-0.875c-4.651,4.168-5.043,11.315-0.875,15.966 C250.724,267.591,254.507,271.818,258.428,276.208z"/> <path d="M85.381,318.761c-3.009-5.473-9.885-7.468-15.357-4.46c-5.472,3.009-7.469,9.884-4.46,15.357 c0.185,0.338,2.595,4.638,6.439,11.322c2.092,3.639,5.898,5.674,9.814,5.674c1.911,0,3.849-0.486,5.626-1.507 c5.414-3.113,7.28-10.025,4.167-15.438C87.997,323.428,85.575,319.11,85.381,318.761z"/> <path d="M120.65,377.418c-3.486-5.18-10.513-6.557-15.694-3.068c-5.181,3.486-6.555,10.513-3.068,15.694 c6.816,10.13,10.081,13.639,11.944,15.396c2.185,2.063,4.974,3.086,7.759,3.086c3.003,0,6.001-1.19,8.224-3.546 c4.287-4.541,4.081-11.698-0.46-15.984C128.769,388.441,126.403,385.966,120.65,377.418z"/> <path d="M418.357,333.494c-3.058,5.445-1.122,12.339,4.323,15.396c1.752,0.983,3.651,1.45,5.527,1.45 c3.954,0,7.795-2.079,9.87-5.773l0.54-0.963c2.863-5.099,7.201-12.824,7.811-13.928c3.019-5.467,1.035-12.346-4.431-15.366 c-5.468-3.017-12.346-1.036-15.366,4.431c-0.604,1.095-4.898,8.742-7.733,13.788L418.357,333.494z"/> <path d="M405.551,378.244c-5.019-3.709-12.102-2.649-15.814,2.376c-2.726,3.691-5.112,6.509-7.091,8.376 c-4.542,4.287-4.748,11.443-0.461,15.986c2.225,2.357,5.222,3.546,8.225,3.546c2.785,0,5.575-1.022,7.759-3.085 c2.993-2.826,6.185-6.549,9.757-11.383C411.637,389.036,410.575,381.956,405.551,378.244z"/> <path d="M503.427,292.102c-24.266-11.957-47.13-21.677-68.571-28.038c8.82-22.052,13.691-46.093,13.691-71.256 c0-106.17-86.376-192.546-192.546-192.546S63.455,86.638,63.455,192.807c0,25.163,4.871,49.205,13.691,71.256 c-21.441,6.362-69.679,28.604-70.023,28.776c-1.625,0.645-3.12,1.676-4.341,3.078C0.648,298.366,0,300.892,0,303.207 c0,3.582,2.298,7.427,2.682,8.095c0.85,1.479,16.513,27.788,25.615,44.457c0.035,0.066,0.071,0.13,0.11,0.196 c2.292,4.007,4.656,8.219,7.083,12.541c14.493,25.819,30.921,55.082,48.787,71.212c0.113,0.103,0.228,0.202,0.346,0.301 c25.206,20.971,48.789,31.557,70.244,31.556c2.766,0,5.498-0.175,8.192-0.528c15.405-2.015,29.162-9.693,41.027-22.845 c7.39,15.299,12.732,33.51,15.642,53.842c0.797,5.569,5.568,9.705,11.193,9.705h50.159c5.627,0,10.396-4.136,11.193-9.705 c2.909-20.332,8.252-38.543,15.642-53.842c11.865,13.151,25.622,20.829,41.027,22.845c2.696,0.353,5.424,0.528,8.192,0.528 c21.454-0.001,45.04-10.586,70.244-31.556c0.118-0.098,0.233-0.198,0.346-0.301c17.866-16.13,34.293-45.393,48.787-71.212 c2.427-4.322,4.79-8.534,7.083-12.541c0.037-0.066,0.074-0.13,0.11-0.196c9.104-16.669,17.091-30.087,21.866-38.105 c1.626-2.732,6.432-9.829,6.432-14.447C512.001,300.893,509.715,295.201,503.427,292.102z M409.397,119.73 c9.14,19.109,14.804,40.18,16.189,62.394h-69.681c-0.599-22.072-3.049-43.045-7.058-62.379h60.269 C409.212,119.745,409.303,119.733,409.397,119.73z M425.499,204.74c-1.315,18.84-5.714,36.84-12.693,53.505 c-20.181-4.58-42.063-7.056-61.565-5.385c2.519-15.244,4.115-31.353,4.624-48.121H425.499z M396.363,97.13h-53.126 c-7.619-26.113-18.322-48.25-31.212-64.753C346.568,44.474,376.051,67.426,396.363,97.13z M267.308,24.893 c15.045,5.308,29.647,20.958,41.29,44.733c4.149,8.473,7.81,17.692,10.965,27.505h-52.255V24.893z M267.308,119.745h58.385 c4.362,19.419,6.948,40.495,7.584,62.379h-65.969V119.745z M333.242,204.741c-0.55,16.87-2.275,33.236-5.068,48.73 c-6.267-7.592-12.649-14.971-18.685-21.943c-0.038-0.043-0.076-0.087-0.115-0.13c-8.852-9.911-16.991-18.983-23.888-26.657 H333.242z M292.447,246.395c5.498,6.35,11.495,13.285,17.439,20.459c-0.758,0.599-1.502,1.212-2.216,1.853 c-21.972,18.463-33.927,48.287-33.669,84.006c0.055,7.667,0.701,15.376,1.869,22.983c-6.759,7.727-13.519,17.013-19.862,27.775 c-6.346-10.766-13.112-20.054-19.874-27.78c1.167-7.606,1.813-15.313,1.868-22.977c0.259-35.72-11.698-65.543-33.668-84.005 c-0.885-0.794-1.813-1.548-2.764-2.277c5.829-7.023,11.699-13.81,17.089-20.036c15.393-17.235,28.649-31.953,36.894-41.105 C263.798,214.442,277.054,229.159,292.447,246.395z M225.622,204.739v0.001c-6.898,7.673-15.038,16.747-23.888,26.657 c-0.038,0.043-0.076,0.087-0.115,0.13c-5.801,6.701-11.923,13.775-17.953,21.054c-2.698-15.23-4.365-31.294-4.903-47.841H225.622 z M178.724,182.125c0.635-21.885,3.22-42.961,7.584-62.379h58.385v62.379H178.724z M244.693,24.893V97.13h-52.255 c3.155-9.813,6.816-19.032,10.965-27.505C215.046,45.849,229.649,30.2,244.693,24.893z M199.978,32.377 c-12.892,16.503-23.593,38.64-31.212,64.753h-53.127C135.951,67.426,165.435,44.474,199.978,32.377z M102.605,119.73 c0.094,0.002,0.187,0.015,0.282,0.015h60.269c-4.01,19.335-6.459,40.307-7.058,62.379H86.416 C87.8,159.911,93.465,138.839,102.605,119.73z M160.76,252.862c-19.501-1.671-41.385,0.805-61.564,5.384 c-6.979-16.665-11.378-34.666-12.694-53.505h69.634C156.645,221.508,158.241,237.617,160.76,252.862z M160.126,448.614 c-17.058,2.225-37.521-6.465-60.859-25.839c-15.062-13.697-30.462-41.133-44.057-65.348c-2.437-4.343-4.813-8.575-7.118-12.605 c-8.537-15.626-16.076-28.393-20.999-36.673c23.069-11.204,44.874-19.523,64.921-24.761c0.068-0.018,0.135-0.035,0.202-0.054 c43.169-12.139,82.194-11.219,97.106,2.29c0.112,0.102,0.225,0.2,0.341,0.297c18.939,15.827,26.659,42.818,25.718,70.479 c-16.713-12.753-32.798-20.389-43.91-24.68c-7.88-3.041-16.502-1.248-22.504,4.681c-5.989,5.916-7.885,14.496-4.947,22.394 l6.832,18.364v-0.001c5.043,13.559,13.69,25.47,25.014,34.452c0.891,0.707,1.783,1.437,2.675,2.191 c4.704,3.977,9.087,8.647,13.124,13.933C182.281,440.222,171.946,447.068,160.126,448.614z M240.528,489.125 c-7.403-40.226-24.049-72.865-47.386-92.596c-1.078-0.911-2.155-1.793-3.227-2.641c-8.084-6.414-14.262-14.925-17.868-24.616 c0,0,0,0,0-0.001l-5.667-15.235c10.922,4.508,26.115,12.332,41.362,25.222c21.098,17.837,45.917,55.601,55.534,109.867H240.528z M318.86,396.528c-17.082,14.443-30.572,35.808-39.483,61.997c-3.14-10.968-6.851-21.195-10.963-30.648 c10.871-22.129,23.945-38.558,35.845-48.619c14.57-12.316,29.077-19.979,39.625-24.491l-8.991,20.588 c-3.458,7.917-8.945,15.192-15.931,21.088C318.928,396.47,318.893,396.5,318.86,396.528z M463.91,344.823 c-2.306,4.03-4.681,8.262-7.118,12.605c-13.594,24.215-28.995,51.651-44.057,65.348c-23.339,19.374-43.795,28.07-60.859,25.839 c-11.82-1.546-22.155-8.391-31.539-20.882c4.037-5.286,8.419-9.955,13.124-13.933l0.111-0.093 c9.582-8.08,17.206-18.211,22.048-29.301l10.46-23.952c3.444-7.888,1.799-16.985-4.191-23.176 c-5.967-6.167-14.966-8.11-22.931-4.94c-14.858,5.908-29.338,14.16-42.336,24.073c-0.943-27.664,6.777-54.66,25.718-70.489 c0.116-0.097,0.23-0.196,0.341-0.297c7.923-7.178,22.649-10.801,41.191-10.801c16.356,0,35.682,2.82,55.915,8.51 c0.068,0.019,0.135,0.036,0.202,0.054c20.047,5.24,41.853,13.558,64.921,24.761C479.985,316.428,472.447,329.196,463.91,344.823z "/> </g> </g> </g> </g>
</svg>