<!DOCTYPE svg PUBLIC "-//W3C//DTD SVG 1.1//EN" "http://www.w3.org/Graphics/SVG/1.1/DTD/svg11.dtd">
<!-- Uploaded to: SVG Repo, www.svgrepo.com, Transformed by: SVG Repo Mixer Tools -->
<svg height="256px" width="256px" version="1.1" id="Capa_1" xmlns="http://www.w3.org/2000/svg" xmlns:xlink="http://www.w3.org/1999/xlink" viewBox="0 0 14.46 14.46" xml:space="preserve" fill="#000000" stroke="#000000" stroke-width="0.00014461">
<g id="SVGRepo_bgCarrier" stroke-width="0" transform="translate(1.2291850000000002,1.2291850000000002), scale(0.83)">
<rect x="0" y="0" width="14.46" height="14.46" rx="7.23" fill="#13131A" strokewidth="0"/>
</g>
<g id="SVGRepo_tracerCarrier" stroke-linecap="round" stroke-linejoin="round" stroke="#CCCCCC" stroke-width="0.057844000000000007"/>
<g id="SVGRepo_iconCarrier"> <g> <path style="fill:#54E6BC;" d="M7.231,0C3.237,0,0,3.237,0,7.231s3.237,7.23,7.231,7.23c3.993,0,7.23-3.237,7.23-7.23 S11.224,0,7.231,0z M9.087,10.217H5.443V9.833c0.108-0.007,0.276-0.022,0.505-0.046c0.229-0.023,0.387-0.048,0.473-0.073 c0.112-0.035,0.197-0.095,0.257-0.175c0.059-0.082,0.089-0.203,0.089-0.365V5.379H5.421V4.926h0.297 c0.39,0,0.738-0.072,1.046-0.217S7.293,4.41,7.426,4.244h0.449C7.864,4.478,7.853,4.752,7.843,5.065 C7.831,5.378,7.826,5.66,7.826,5.909v3.205c0,0.126,0.027,0.239,0.084,0.338c0.056,0.1,0.136,0.172,0.24,0.219 c0.094,0.04,0.247,0.075,0.46,0.108C8.822,9.811,8.98,9.83,9.086,9.833v0.384H9.087z"/> </g> </g>
</svg>