<!DOCTYPE svg PUBLIC "-//W3C//DTD SVG 1.1//EN" "http://www.w3.org/Graphics/SVG/1.1/DTD/svg11.dtd">
<!-- Uploaded to: SVG Repo, www.svgrepo.com, Transformed by: SVG Repo Mixer Tools -->
<svg fill="#13131A" width="256px" height="256px" viewBox="-25.6 -25.6 307.20 307.20" id="Flat" xmlns="http://www.w3.org/2000/svg" stroke="#13131A">
<g id="SVGRepo_bgCarrier" stroke-width="0">
<rect x="-25.6" y="-25.6" width="307.20" height="307.20" rx="153.6" fill="#54E6BC" strokewidth="0"/>
</g>
<g id="SVGRepo_tracerCarrier" stroke-linecap="round" stroke-linejoin="round"/>
<g id="SVGRepo_iconCarrier"> <path d="M184,168.00488a63.99178,63.99178,0,0,1-109.24219,45.251,8,8,0,0,1,11.31446-11.313,47.994,47.994,0,1,0,33.93554-81.93408,7.99947,7.99947,0,0,1-6.55469-12.58594L160.626,40H80a8,8,0,0,1,0-16h95.9873A7.99946,7.99946,0,0,1,182.542,36.58594l-48.28125,69.00683A64.055,64.055,0,0,1,184,168.00488Z"/> </g>
</svg>